<?xml version="1.0" encoding="UTF-8"?>
<svg width="129px" height="190px" viewBox="0 0 129 190" version="1.1" xmlns="http://www.w3.org/2000/svg" xmlns:xlink="http://www.w3.org/1999/xlink">
    <!-- Generator: Sketch 46.2 (44496) - http://www.bohemiancoding.com/sketch -->
    <title>Lil Person@1.5x</title>
    <desc>Created with Sketch.</desc>
    <defs>
        <linearGradient x1="100%" y1="0%" x2="29.3050125%" y2="53.6742988%" id="linearGradient-1">
            <stop stop-color="#B1D5FF" offset="0%"></stop>
            <stop stop-color="#4A90E2" stop-opacity="0" offset="100%"></stop>
        </linearGradient>
    </defs>
    <g id="01---Homepage" stroke="none" stroke-width="1" fill="none" fill-rule="evenodd">
        <g id="01-Homepage-D-Copy-4" transform="translate(-400.000000, -1710.000000)">
            <g id="Group" transform="translate(0.000000, 1390.000000)">
                <g id="Lil-Person" transform="translate(355.000000, 320.000000)">
                    <g id="Page-1" transform="translate(115.500000, 0.000000)" fill="#314358">
                        <path d="M52.9904732,109.917633 C52.3110909,103.067234 51.494436,95.5444351 50.5405088,87.9245163 C44.4037316,38.8964406 38.1413153,28.2551344 33.9645098,24.5153426 C32.1041189,22.8499085 30.2600146,22.5 29.0413143,22.5 C22.414079,22.5 19.4322419,31.0590489 16.9939107,43.9094716 C15.1879635,53.4253087 13.5741977,66.634469 12.1977504,83.17078 C11.1395891,95.8827264 10.3829619,108.669023 9.87109848,118.870736 C9.31968197,129.853586 9.05304766,137.833637 9,139.5 L13.6556305,139.5 C13.7193808,137.501851 14.0009056,129.178862 14.5769847,117.893037 C15.1516677,106.649962 16.0190435,92.4682147 17.2572877,78.6781971 L43.7680903,72.8612595 C45.722478,85.7061061 47.2678402,99.2990968 48.4106916,110.868381 C49.8713637,125.649109 50.6745239,137.116162 50.8364589,139.5 L55.5,139.5 C55.3976273,137.973042 54.560498,125.74344 52.9904732,109.917633" id="Fill-1"></path>
                        <path d="M29.25,70.3030303 C15.702336,70.3030303 4.68,61.98 4.68,51.75 C4.68,41.52 15.702336,33.1969697 29.25,33.1969697 C42.797664,33.1969697 53.82,41.52 53.82,51.75 C53.82,61.98 42.797664,70.3030303 29.25,70.3030303 M29.25,28.5 C13.121784,28.5 0,38.9300909 0,51.75 C0,64.5699091 13.121784,75 29.25,75 C45.378216,75 58.5,64.5699091 58.5,51.75 C58.5,38.9300909 45.378216,28.5 29.25,28.5" id="Fill-3"></path>
                        <path d="M40.5,9 C40.5,13.9708421 36.4703684,18 31.5,18 C26.5296316,18 22.5,13.9708421 22.5,9 C22.5,4.02915789 26.5296316,0 31.5,0 C36.4703684,0 40.5,4.02915789 40.5,9" id="Fill-5"></path>
                    </g>
                    <polygon id="Path-3" fill-opacity="0.599999964" fill="url(#linearGradient-1)" style="mix-blend-mode: multiply;" points="172.904297 136.5 0 152.443359 38.7539062 197.009766"></polygon>
                </g>
            </g>
        </g>
    </g>
</svg>